<?xml version="1.0" encoding="UTF-8" standalone="no"?><svg width="400" height="150" viewBox="0 0 400 150" xml:space="preserve" xmlns="http://www.w3.org/2000/svg" xmlns:svg="http://www.w3.org/2000/svg"><g transform="translate(0,-330)"><rect width="400" height="150" y="330" rx="1.3931869" ry="1.6304325" fill="#f5f5f5" stroke-width="1.32622504" stroke-linejoin="round"/></g><g transform="translate(0,50)"><rect width="400" height="60" y="-50.403553" rx="0" ry="0" fill="#2a2a2a" stroke-width="1.24381" stroke-linejoin="round"/><g transform="translate(339.28571,105)" fill="#fff"><rect transform="rotate(-45)" y="-66.742813" x="117.51392" height="15" width="2" stroke-width=".68313" stroke-linejoin="round"/><rect transform="rotate(45)" y="-126.01392" x="-60.242817" height="15" width="2" stroke-width=".68313" stroke-linejoin="round"/></g><text xml:space="preserve" style="line-height:1.25" x="130.93193" y="-11.608362" font-size="29.3333" font-family="sans-serif" letter-spacing="0" word-spacing="0" fill="#fff"><tspan x="0" y="0" font-size="24"><tspan x="130.93193" y="-11.608362" style="-inkscape-font-specification:Arial" font-family="Arial">Hello !</tspan></tspan></text><g transform="translate(89.31218,2.5253853)"><rect ry="16.920055" y="-40.411205" x="127.27924" height="33.840111" width="114.65232" fill="#faff76" stroke-width=".879032" stroke-linejoin="round"/><text y="-15.165204" x="157.07965" style="line-height:1.25" xml:space="preserve" font-size="29.3333" font-family="sans-serif" letter-spacing="0" word-spacing="0"><tspan style="-inkscape-font-specification:Arial" y="0" x="0" font-size="24" font-family="Arial"><tspan style="-inkscape-font-specification:Arial" y="-15.165204" x="157.07965">Click</tspan></tspan></text></g><g transform="matrix(0.93230082,0,0,0.93230082,1.3601177,-1.9843726)"><path d="m 20.587701,-20.325529 c -0.662791,0.662798 -0.662791,1.739154 0,2.401952 l 8.483695,8.4836979 c 0.662788,0.6627793 1.739157,0.6627793 2.401945,0 0.662789,-0.6627979 0.662789,-1.7391719 0,-2.4019509 l -5.593937,-5.58863 h 16.267488 c 0.938508,0 1.696739,-0.758244 1.696739,-1.696747 0,-0.938503 -0.758231,-1.696747 -1.696739,-1.696747 H 25.884706 l 5.583333,-5.58863 c 0.662789,-0.662779 0.662789,-1.739153 0,-2.401951 -0.662788,-0.662779 -1.739159,-0.662779 -2.401947,0 l -8.483695,8.483699 z" fill="#fff" stroke-width=".0530231"/><path d="M 37.849153,-19.127213 H 115.37836" fill="none" stroke="#fff" stroke-width="3.4" stroke-linecap="round"/></g></g><g transform="translate(0,50)"><rect width="400" height="3" y="9.5964489" rx="0" ry="0" fill="#58fce3" stroke-width="1.08106" stroke-linejoin="round"/></g></svg>